<svg id="Слой_1" data-name="Слой 1" xmlns="http://www.w3.org/2000/svg" viewBox="0 0 324.23 323.74"><defs><style>.cls-1{fill:#d2bda8;}.cls-2{fill:#070505;}.cls-3{fill:#2b1507;}.cls-4{fill:#fefefe;}</style></defs><title>logo</title><path class="cls-1" d="M420.66,253.83a103.73,103.73,0,0,1-.37,12.71c-.24,3.19-.53,6.41-1,9.61-.54,3.87-1.15,7.73-1.79,11.59a25.3,25.3,0,0,1-1.27,5.88c-1,2.27-1.17,4.75-2,7.06-1.4,3.83-2.63,7.73-4.08,11.54q-2,5.32-4.46,10.46c-2.46,5.22-4.87,10.45-7.59,15.55-4.16,7.79-9.46,14.78-14.93,21.67a188,188,0,0,1-16.5,17.7,83.13,83.13,0,0,1-6.44,5.39c-3.17,2.5-6.31,5.07-9.65,7.34-5.72,3.9-11.39,7.89-17.6,11.05A183.42,183.42,0,0,1,309.31,411a163.06,163.06,0,0,1-27.21,6.43c-4.89.78-9.81,1.22-14.75,1.58a103.23,103.23,0,0,1-12.68.14c-5.28-.24-10.56-.53-15.83-1.14a172,172,0,0,1-17.79-3A144.27,144.27,0,0,1,206,410.49c-1.92-.66-3.87-1.21-5.74-2a240.39,240.39,0,0,1-23-10.64A139.07,139.07,0,0,1,161.82,388a148.87,148.87,0,0,1-19.37-16.69,128.61,128.61,0,0,1-14.09-17c-3.61-5.24-7.42-10.36-10.53-15.93-2.44-4.36-4.79-8.77-6.81-13.35-1.74-3.94-3.62-7.83-5.09-11.88-1.54-4.25-2.9-8.55-4-12.95-1-3.75-1.88-7.51-2.62-11.3a114,114,0,0,1-2-12.47c-.22-2.7-.36-5.41-.63-8.11a48.64,48.64,0,0,1-.11-5c0-3.72,0-7.44,0-11.16a83.22,83.22,0,0,1,1-11.57c.52-3.66,1-7.32,1.53-11,.66-4.27,1.82-8.41,2.75-12.61a105.54,105.54,0,0,1,4.93-15.22A100.24,100.24,0,0,1,112,189.94c2-3.66,3.79-7.43,5.94-11,2-3.24,3.86-6.5,5.88-9.7,1.74-2.77,3.69-5.39,5.6-8.05A105.55,105.55,0,0,1,137.74,151a1.4,1.4,0,0,0,.45-.77c.07-1.45,1-2.33,2-3.18,3.41-3,6.9-6,10.26-9.08,2.75-2.55,5.54-5.06,8.5-7.36A153.91,153.91,0,0,1,173.88,120c2.47-1.5,5.24-2.49,7.48-4.33,5-4.09,11.12-5.72,16.86-8.15a129.52,129.52,0,0,1,15.9-5.32c7.39-2,14.88-3.62,22.41-5,3.5-.63,7.08-.88,10.64-1.18,4.74-.4,9.47-.43,14.22-.5a86.84,86.84,0,0,1,10.81.85c3.07.35,6.15.7,9.23,1a50.08,50.08,0,0,1,9.31,1.31c2.77.8,5.67.76,8.43,1.54,5.5,1.56,11.06,3,16.4,5,4.84,1.89,9.63,3.92,14.4,6a105.09,105.09,0,0,1,13.39,6.9,144,144,0,0,1,16.15,11.32c4.91,4,9.36,8.43,13.85,12.85a167.54,167.54,0,0,1,12.61,14,179.87,179.87,0,0,1,11,15.47,136.76,136.76,0,0,1,7.45,13.41c1.77,3.57,3.63,7.11,5.09,10.83.84,2.14,1.32,4.43,2.15,6.58a99.53,99.53,0,0,1,5,16.64c1,5.29,2.28,10.58,2.56,16a20.34,20.34,0,0,0,.89,5.7c.64,1.84.34,3.84.51,5.77C420.8,248.83,420.66,251,420.66,253.83ZM101.6,285.43c.93-2.41.63-4.67,1.29-6.95a15.12,15.12,0,0,1,1,4q.84,3.77,1.59,7.54c.09.48.25,1.18-.21,1.45-.67.39-.32-.78-1.07-.75.66,1.17.21,2.77,1.81,3.4a.6.6,0,0,1,.28.42,11.74,11.74,0,0,0,1.28,3.06,61.15,61.15,0,0,1,3.08,8.67c.46,1.54.82,3.23,2.12,4.37a3.11,3.11,0,0,1,1,1.72c.54,2.41,1.82,4.48,2.88,6.66a18.8,18.8,0,0,1,1.32,4.2,18.44,18.44,0,0,1-2.73-3.36c-.1-.19-.26-.38-.51-.27s-.16.35-.09.55c1,3.13,1.88,6.31,4.45,8.58.31.27.62,2,1.54.39a1.69,1.69,0,0,1,.27.15,8.67,8.67,0,0,1,2.85,4.09c.08.24.18.53,0,.73s-.43-.09-.64-.17c-.41-.17-.71-.62-1.27-.55a4.34,4.34,0,0,0,.46,1.63c1.54,3.25,3.77,6.07,5.54,9.18s4.57,5.92,6.65,9a129.49,129.49,0,0,0,9.83,12.25c5.45,6.3,12.09,11.25,18.69,16.21a93.35,93.35,0,0,0,13.26,8.68c2.68,1.37,5.24,3,8,4.1,3.14,1.27,6.23,2.68,9.36,4s6.41,2.68,9.67,3.9c2.16.81,4.37,1.51,6.48,2.51a36.27,36.27,0,0,0,6,2.22c3.31.92,6.69,1.6,10,2.48,4.39,1.16,8.78,1.8,13.28.71a5.63,5.63,0,0,1,2.05-.1c3.21.42,6.42.88,9.65,1.07,6.69.4,13.39.2,20.09.1a64.51,64.51,0,0,0,7.87-.76,91.91,91.91,0,0,0,13.63-2.84c1.33-.39,2.74-.42,4-.93s2.61-.56,3.83-1.07a25.79,25.79,0,0,1,4.12-.93,7.85,7.85,0,0,1,2.77-.55c1.83.2,3.57-.47,5.32-.72,1.54-.21,3.08-1.2,4.69-1.65,2-.54,3.68-1.95,5.9-1.64a.77.77,0,0,0,.94-.69c0-.66.47-.86.95-1.09,3-1.46,6.05-2.73,8.89-4.42a182,182,0,0,0,23.6-16.66,140.46,140.46,0,0,0,15.29-14.17,99.89,99.89,0,0,0,6.91-8.06c3.27-4.54,6.51-9.11,9.38-13.93,2.56-4.29,4.92-8.7,7.11-13.19,1.49-3,2.68-6.23,4.06-9.34,2-4.57,3.55-9.32,5.12-14.06a84.31,84.31,0,0,0,3.07-12.39c.65-3.76,1.63-7.47,2.08-11.28.65-5.62,1.38-11.22,1.95-16.84a55.86,55.86,0,0,1,1.37-6.69c.07-.32.17-.78.62-.69s.39.53.42.86c.1,1.25.24,2.5.24,3.75,0,.53.16,1.27-.35,1.58-1.1.67-1.07,1.72-1.07,2.74a143.11,143.11,0,0,1-2.23,23,13.14,13.14,0,0,0,0,4.29c.71-1.58,1.31-3.05,2-4.46.43-.91.38-2.05,1.19-2.79.18-.16.25-.49.59-.37s.25.34.25.55a12.21,12.21,0,0,1-.19,2.82,12.87,12.87,0,0,0-.22,5.42c4.65-18.13,5.4-36.51,3.82-55.29-1,1.33-1.32.46-1.67-.13-1.33-2.22-1.28-4.8-1.79-7.22-.71-3.36-1.51-6.7-2.43-10-.78-2.83-1.77-5.62-2.67-8.42-.54-1.7-.95-3.46-1.65-5.1-1-2.26-1.84-4.57-2.95-6.8-1.61-3.23-2.85-6.62-4.67-9.78-2-3.41-4.29-6.61-6-10.16-.24-.5-1.08-1.06-.57-1.53s.94.45,1.45.68c.06,0,.16,0,.25,0a1.14,1.14,0,0,0-.18-1.1c-2.54-3.87-4.69-8-7.59-11.63-3.18-4-6.06-8.3-9.59-12-4.5-4.72-8.58-9.87-13.86-13.83-2.4-1.8-4.44-4.08-7-5.76-1.78-1.19-3.55-2.43-5.2-3.75a108.53,108.53,0,0,0-13.51-8.94A93.82,93.82,0,0,0,326,116.64c-2-.79-4-1.68-6.1-2.37s-4.38-1.52-6.56-2.31c-2.42-.88-4.84-1.76-7.32-2.41s-5.15-1.54-7.69-2.39a96.73,96.73,0,0,0-16.19-3.93,76.76,76.76,0,0,0-9.24-1c-4.39-.12-8.75-.93-13.16-.62a5.37,5.37,0,0,0-1.89.32,18.76,18.76,0,0,1-7.56,1.86c-4,0-8-.52-12.11.52a84.8,84.8,0,0,0-10.25,2.78c-.31.13-.62.18-.8-.15s.2-.41.34-.6c.77-1.07,2.07-1.33,3.06-2.06.31-.22.61-.43.41-.82s-.54-.26-.83-.17c-1.72.53-3.42,1.1-5.15,1.61-2.77.83-5.32,2.24-8,3.16-4.63,1.57-9.1,3.55-13.61,5.42-2.37,1-4.64,2.21-7,3.24a35.32,35.32,0,0,1-6,2.37c-2.56.6-4.44,3.12-7.51,2.47.68.93.64.86-.14,1.33-1.31.8-2.77,1.28-4.08,2a136.68,136.68,0,0,0-13.22,8.35c-5.44,3.95-10.9,7.75-15.35,12.95-3.07,3.59-6.55,6.86-9.65,10.47-2.08,2.41-4.24,4.75-6.12,7.34-1.12,1.56-2.15,3.38-4.25,4-.33.09-.4.43-.39.75a2.39,2.39,0,0,1-.43,1.2c-1.28,2.43-2.73,4.77-4,7.21q-5.94,11.1-11.1,22.57a105.07,105.07,0,0,0-5.64,16.87,30.83,30.83,0,0,1-1.62,5,26.56,26.56,0,0,0-1.19,4.66,1,1,0,0,0,.18.85c1.3,1,.88,2.28.67,3.55-.49,3-1.72,5.87-1.84,9a16.19,16.19,0,0,1-.42,3.86c-.09.32,0,.8-.45.83s-.37-.5-.55-.77a8.56,8.56,0,0,1-1.07-2.75c-.06-.27-.22-.5-.52-.46-.1,0-.23.26-.23.4-.08,2.54-1,5-.81,7.58.07,1,.7,1.85.77,2.84a92,92,0,0,1,.28,11,18,18,0,0,1-.28,2.31c-.1.54-.34,1-.92.38s-.81-1.24-1.53-.9-.2,1.18-.29,1.79a2.26,2.26,0,0,0,0,.51c.49,5.07,1.54,10.05,2.21,15.09C101,282.63,101.31,283.88,101.6,285.43ZM248.78,414.9a11,11,0,0,0,2.49-.22.65.65,0,0,0,.46-.57c0-.27-.28-.31-.49-.3-1.34.08-2.51-.62-3.79-.78a7.06,7.06,0,0,1-2.3-.21c-1.45-.71-3.11-.46-4.59-1.11a5,5,0,0,0-2.31,0,.88.88,0,0,0-.86.83c0,.44.46.42.75.56a11.89,11.89,0,0,0,3.52.78C244.12,414.3,246.6,414.59,248.78,414.9Zm35.74-2.39a44.5,44.5,0,0,0,10-1.25,9.69,9.69,0,0,0,1.44-.55c.42-.16.7-.53.57-.88s-.65-.29-1-.14-.6.41-.91.43c-3,.25-5.76,1.44-8.73,1.67C285.45,411.83,284.82,411.72,284.52,412.51Zm76.26-31.62a2.45,2.45,0,0,1-2.1.39,2.11,2.11,0,0,0-2.06.76c-.38.45-.84.85-1.27,1.27s-.93.82-.51,1.42,1.08.39,1.62.09A16.37,16.37,0,0,0,360.78,380.89ZM200.84,404.66a3.72,3.72,0,0,0-1.62.31,1,1,0,0,0-.57,1.27,1.23,1.23,0,0,0,1.11,1.08.78.78,0,0,0,1-.75,1.15,1.15,0,0,1,.48-.73c.26-.21,1,.17.79-.62C201.84,404.66,201.33,404.64,200.84,404.66ZM106,298.82c-.25.13-.22.39-.25.64-.13,1.06.39,2,.52,3,0,.41.23.67.66.58s.39-.53.3-.82a16.75,16.75,0,0,1-.72-2.87A.56.56,0,0,0,106,298.82Z" transform="translate(-96.51 -95.56)"/><path class="cls-2" d="M101.6,285.43c-.29-1.55-.59-2.8-.76-4.07-.67-5-1.72-10-2.21-15.09a2.26,2.26,0,0,1,0-.51c.09-.61-.44-1.44.29-1.79s1.09.45,1.53.9.82.16.92-.38a18,18,0,0,0,.28-2.31,92,92,0,0,0-.28-11c-.07-1-.7-1.8-.77-2.84-.17-2.59.73-5,.81-7.58,0-.14.13-.39.23-.4.3,0,.46.19.52.46a8.56,8.56,0,0,0,1.07,2.75c.18.27.11.8.55.77s.36-.51.45-.83a16.19,16.19,0,0,0,.42-3.86c.12-3.09,1.35-5.95,1.84-9,.21-1.27.63-2.55-.67-3.55a1,1,0,0,1-.18-.85,26.56,26.56,0,0,1,1.19-4.66,30.83,30.83,0,0,0,1.62-5A105.07,105.07,0,0,1,114,199.74q5.14-11.49,11.1-22.57c1.3-2.44,2.75-4.78,4-7.21a2.39,2.39,0,0,0,.43-1.2c0-.32.06-.66.39-.75,2.1-.59,3.13-2.41,4.25-4,1.88-2.59,4-4.93,6.12-7.34,3.1-3.61,6.58-6.88,9.65-10.47,4.45-5.2,9.91-9,15.35-12.95a136.68,136.68,0,0,1,13.22-8.35c1.31-.75,2.77-1.23,4.08-2,.78-.47.82-.4.14-1.33,3.07.65,4.95-1.87,7.51-2.47a35.32,35.32,0,0,0,6-2.37c2.34-1,4.61-2.26,7-3.24,4.51-1.87,9-3.85,13.61-5.42,2.72-.92,5.27-2.33,8-3.16,1.73-.51,3.43-1.08,5.15-1.61.29-.09.67-.13.83.17s-.1.6-.41.82c-1,.73-2.29,1-3.06,2.06-.14.19-.51.29-.34.6s.49.28.8.15a84.8,84.8,0,0,1,10.25-2.78c4.07-1,8.07-.53,12.11-.52a18.76,18.76,0,0,0,7.56-1.86,5.37,5.37,0,0,1,1.89-.32c4.41-.31,8.77.5,13.16.62a76.76,76.76,0,0,1,9.24,1,96.73,96.73,0,0,1,16.19,3.93c2.54.85,5.09,1.71,7.69,2.39s4.9,1.53,7.32,2.41c2.18.79,4.36,1.58,6.56,2.31s4.06,1.58,6.1,2.37a93.82,93.82,0,0,1,13.21,6.74,108.53,108.53,0,0,1,13.51,8.94c1.65,1.32,3.42,2.56,5.2,3.75,2.51,1.68,4.55,4,7,5.76,5.28,4,9.36,9.11,13.86,13.83,3.53,3.7,6.41,8,9.59,12,2.9,3.65,5.05,7.76,7.59,11.63a1.14,1.14,0,0,1,.18,1.1c-.09,0-.19.05-.25,0-.51-.23-1-1.08-1.45-.68s.33,1,.57,1.53c1.7,3.55,4,6.75,6,10.16,1.82,3.16,3.06,6.55,4.67,9.78,1.11,2.23,2,4.54,2.95,6.8.7,1.64,1.11,3.4,1.65,5.1.9,2.8,1.89,5.59,2.67,8.42.92,3.31,1.72,6.65,2.43,10,.51,2.42.46,5,1.79,7.22.35.59.7,1.46,1.67.13,1.58,18.78.83,37.16-3.82,55.29a12.87,12.87,0,0,1,.22-5.42,12.21,12.21,0,0,0,.19-2.82c0-.21,0-.46-.25-.55s-.41.21-.59.37c-.81.74-.76,1.88-1.19,2.79-.67,1.41-1.27,2.88-2,4.46a13.14,13.14,0,0,1,0-4.29,143.11,143.11,0,0,0,2.23-23c0-1,0-2.07,1.07-2.74.51-.31.35-1.05.35-1.58,0-1.25-.14-2.5-.24-3.75,0-.33,0-.78-.42-.86s-.55.37-.62.69a55.86,55.86,0,0,0-1.37,6.69c-.57,5.62-1.3,11.22-1.95,16.84-.45,3.81-1.43,7.52-2.08,11.28a84.31,84.31,0,0,1-3.07,12.39c-1.57,4.74-3.1,9.49-5.12,14.06-1.38,3.11-2.57,6.3-4.06,9.34-2.19,4.49-4.55,8.9-7.11,13.19-2.87,4.82-6.11,9.39-9.38,13.93a99.89,99.89,0,0,1-6.91,8.06,140.46,140.46,0,0,1-15.29,14.17,182,182,0,0,1-23.6,16.66c-2.84,1.69-5.92,3-8.89,4.42-.48.23-.93.43-.95,1.09a.77.77,0,0,1-.94.69c-2.22-.31-3.93,1.1-5.9,1.64-1.61.45-3.15,1.44-4.69,1.65-1.75.25-3.49.92-5.32.72a7.85,7.85,0,0,0-2.77.55,25.79,25.79,0,0,0-4.12.93c-1.22.51-2.58.57-3.83,1.07s-2.67.54-4,.93a91.91,91.91,0,0,1-13.63,2.84,64.51,64.51,0,0,1-7.87.76c-6.7.1-13.4.3-20.09-.1-3.23-.19-6.44-.65-9.65-1.07a5.63,5.63,0,0,0-2.05.1c-4.5,1.09-8.89.45-13.28-.71-3.33-.88-6.71-1.56-10-2.48a36.27,36.27,0,0,1-6-2.22c-2.11-1-4.32-1.7-6.48-2.51-3.26-1.22-6.46-2.57-9.67-3.9s-6.22-2.71-9.36-4c-2.8-1.14-5.36-2.73-8-4.1A93.35,93.35,0,0,1,163,381.72c-6.6-5-13.24-9.91-18.69-16.21a129.49,129.49,0,0,1-9.83-12.25c-2.08-3.12-4.79-5.78-6.65-9s-4-5.93-5.54-9.18a4.34,4.34,0,0,1-.46-1.63c.56-.07.86.38,1.27.55.21.08.37.44.64.17s.12-.49,0-.73a8.67,8.67,0,0,0-2.85-4.09,1.69,1.69,0,0,0-.27-.15c-.92,1.62-1.23-.12-1.54-.39-2.57-2.27-3.48-5.45-4.45-8.58-.07-.2-.18-.43.09-.55s.41.08.51.27a18.44,18.44,0,0,0,2.73,3.36,18.8,18.8,0,0,0-1.32-4.2c-1.06-2.18-2.34-4.25-2.88-6.66a3.11,3.11,0,0,0-1-1.72c-1.3-1.14-1.66-2.83-2.12-4.37a61.15,61.15,0,0,0-3.08-8.67,11.74,11.74,0,0,1-1.28-3.06.6.6,0,0,0-.28-.42c-1.6-.63-1.15-2.23-1.81-3.4.75,0,.4,1.14,1.07.75.46-.27.3-1,.21-1.45q-.75-3.78-1.59-7.54a15.12,15.12,0,0,0-1-4C102.23,280.76,102.53,283,101.6,285.43Zm282.68-94.76c.51.6.85,1,1.22,1.41a10.31,10.31,0,0,0,1.29,1.27c.27.2,1,.28.82-.24-.48-1.18-.27-2.52-1.22-3.61-1.4-1.62-3.33-2.8-3.92-5.12-.5-2-1.9-3.54-3-5.25a126.37,126.37,0,0,0-15.93-20.44c-5.4-5.56-11.24-10.5-18.32-13.76a12,12,0,0,1-4.71-3.68c-.35-.47-.79-.82-.15-1.4.36-.33.18-.74-.14-1A10.46,10.46,0,0,0,335,136c-2-.34-4-.86-5.35-2.7a8.76,8.76,0,0,0-3.64-3.19,57.33,57.33,0,0,1-5.41-2.62,11.07,11.07,0,0,0-3.93-1.48,33.62,33.62,0,0,1-4.13-1c-1.61-.38-2.9-1.77-4.75-1.44-.55.1-.9-.42-.93-1a1.5,1.5,0,0,0-1.42-1.54c-2.21-.41-4.18-1.54-6.31-2.22-3.27-1-6.59-1.86-9.94-2.6-1.9-.42-3.83-.66-5.75-.94-2.64-.38-5.27-.81-7.91-1.19s-5.2-.64-7.8-1c-3-.43-5.93-1.53-9-1.06a18.59,18.59,0,0,1-3,.37,138.91,138.91,0,0,0-14.57,1c-1.16.12-2.34.09-3.48.28-2,.33-3.89.76-5.83,1.17-2.11.45-4.24.78-6.37,1.13-1.84.31-3.15,1.9-5.08,1.83-.12,0-.33.19-.36.33-.21.93-1,.86-1.64.91-1,.09-2.07.14-3.11.19a1.64,1.64,0,0,0-1.69,1.14,1.8,1.8,0,0,1-1.77,1.41,3.23,3.23,0,0,0-1.94.61c-.25.23-.93.34-.83-.26.32-1.87-.86-.88-1.37-.7-2.62.94-5.12,2.21-7.69,3.24-5.18,2.08-9.67,5.37-14.67,7.75-1.12.54-1.7,1.69-2.75,2.3a119.1,119.1,0,0,0-10.5,6.73,93.53,93.53,0,0,0-15.14,13.24c-2.11,2.35-5.08,3.92-6.38,7a.41.41,0,0,1-.15.21c-2,1.12-3.06,3.22-4.48,4.92-.76.89-1.67,1.75-1.72,3.1,0,.62-.63.72-1.19.74-.33,0-1,0-.87.3.29,1.08-.61,1.84-.61,2.77a3.43,3.43,0,0,1-.92,2.34,2.28,2.28,0,0,0-.69,1.47c0,.44-.18,1-.72.92s-.35-.65-.39-1,.12-.85-.4-1-.58.3-.76.58c-.77,1.23-1.1,2.69-1.95,3.9a.62.62,0,0,0,.2.81c.86.81.21,1.47-.21,2.15-.09.13-.19.37-.34.12-.83-1.38-1.28-.07-1.53.33a53.92,53.92,0,0,0-4.46,8.52,53.28,53.28,0,0,1-2.65,5.86,33.59,33.59,0,0,0-2.81,6.18c-.72,2.25-1.57,4.47-2.49,6.6-1.88,4.36-2.48,9-3.28,13.54a33.57,33.57,0,0,0-.77,6.66c.06,2-.91,3.93-.71,6s-.1,4.15.17,6.21a1.18,1.18,0,0,1-.29,1.09c-.88.64-.83,1.53-.83,2.44,0,1.38-.06,2.77-.08,4.15,0,4.06-.29,8.17.35,12.17.71,4.48.59,9,1.21,13.49.55,3.93,1.22,7.82,2,11.7.71,3.5,1.9,6.88,2.53,10.42a34.13,34.13,0,0,0,1.73,6.21c1,2.49,2.1,4.89,3.13,7.34s2.34,4.59,3.56,6.87a1,1,0,0,0,.59.45c1.25.5,1.83,1.42,1.26,2.48a1.86,1.86,0,0,0,.34,2.24c.66.89,1.13,1.9,1.83,2.77.39.49,1.69,1.22.32,2.15-.07.05.05.5.18.7,2.41,3.54,4.41,7.39,7.25,10.6s4.93,6.58,8.06,9.3c2.71,2.37,4.77,5.38,7.61,7.64a18.75,18.75,0,0,1,2.44,2.44,28.48,28.48,0,0,0,4.84,4.79c1.72,1.22,3.27,2.61,4.94,3.87,3.24,2.44,5.73,5.84,9.8,7.26,1.78.62,3.27,2,5,3,2.13,1.19,4.08,2.75,6.47,3.4a4.94,4.94,0,0,1,2.32,1.29,18.38,18.38,0,0,0,1.55,1.36,42.48,42.48,0,0,0,11.26,6.37c.44.18.71.36.49.83-.41.9.24,1,.83,1.2,2.45.78,4.81,1.82,7.31,2.46a55.56,55.56,0,0,0,7.76,1.78c3.12.37,6.21,1.12,9.33,1.29,4.46.25,8.78,1.29,13.19,1.84a112.15,112.15,0,0,0,11.43,1.08c3.11.07,6.22,0,9.34,0a44.77,44.77,0,0,0,6.46-.2c3.32-.52,6.67-.64,10-1,2.52-.26,5-.79,7.52-1,1.65-.15,3.24-.85,4.89-1.14a75.39,75.39,0,0,0,9.45-2.57,86.44,86.44,0,0,0,8.32-3.06c3.19-1.36,6.46-2.55,9.58-4.07,2.54-1.24,4.93-2.8,7.8-3.25.57-.09,1.14-.65.94-1-.7-1.25.43-1.32,1-1.77,1.94-1.63,4.58-1.12,6.72-2.22a6.53,6.53,0,0,0,2-1.11c1-1,1.94-2.11,3.52-2.19.6,0,.72-.48.87-1a4.07,4.07,0,0,1,2.43-2.84,14.69,14.69,0,0,0,5.22-3.08c3-2.87,5.93-5.73,8.77-8.72,1.92-2,4-3.9,5.73-6.05,2.73-3.32,5.39-6.68,8-10.06,1.45-1.86,2.83-3.79,4.22-5.71,1.7-2.35,3-5,5.07-7.08.4-.39.59-.83,0-1.15-1.07-.58-.54-.93.14-1.27.94-.48,1.91-.9,1.4-2.28-.15-.41.19-.71.43-1,1.8-2.4,3.81-4.66,4.91-7.51.16-.43.24-1-.29-1.09-.9-.23-.59-.72-.46-1.28.75-3.1,2.47-5.84,3.38-8.89a33.25,33.25,0,0,1,1.43-3.39c.68.87.24,1.85.69,2.68,0-1,1.09-1.6,1.11-2.52,0-2.23,1.47-4,1.81-6.16a17.22,17.22,0,0,1,1-3.7,7.48,7.48,0,0,0,.73-3.77c0-.25,0-.56-.34-.62s-.55.22-.57.53c-.05,1-.82,1.66-.95,2.6-.48-2.63.92-4.81,1.62-7.16.09-.32.41-.48.61,0,.11.28.21.66.59.55s.4-.54.4-.87c-.06-2.29.82-4.42,1.15-6.65q.91-6.19,1.4-12.45c.39-5-.1-9.92-.37-14.87a14.21,14.21,0,0,0-.19-3.6c-.76-2.21-.73-4.52-1-6.75a141.08,141.08,0,0,0-2.63-14.59c-.19-.89.06-2.21-1.09-2.7a1.47,1.47,0,0,1-.87-1.14c-.58-1.85-.76-3.81-1.64-5.56-1.9-3.84-3.44-7.84-5.13-11.77q-2.84-6.58-6.21-12.9C384.91,193.07,384.05,192.2,384.28,190.67Zm3.88-19.55c-.57-3.17-10.57-14.36-13.52-15.13C375.33,157.76,386.61,170.4,388.16,171.12Zm27.49,72.94a2.4,2.4,0,0,0-.3,2.29,30.54,30.54,0,0,1,.7,6.93,8.85,8.85,0,0,0,.36,1.9.58.58,0,0,0,.53.5c.35,0,.3-.34.36-.58a18.24,18.24,0,0,0-.21-7.06C416.86,246.67,417,245.15,415.65,244.06ZM133.9,347.93c-.31.55,0,.86.18,1.25,1,2.11,2.9,3.49,4.17,5.37a18.88,18.88,0,0,0,1.78,2c.19.21.42.55.73.25s-.11-.43-.22-.63c-1.17-2-2.78-3.7-4.12-5.58A9.75,9.75,0,0,0,133.9,347.93ZM395.7,211.8c-.05-.19-.1-.49-.19-.77a42.32,42.32,0,0,0-2.23-5.18,12.92,12.92,0,0,0-1.11-2.31c-.2-.25-.41-.47-.75-.38s-.41.5-.36.84a3.62,3.62,0,0,0,.18.88,64.31,64.31,0,0,0,3.46,7.32c.14.26.24.6.61.54S395.69,212.24,395.7,211.8Zm-49.57-68.06a4.5,4.5,0,0,0-2.21-2.14c-.6,0-1,.33-.68.87a3.41,3.41,0,0,0,2.22,1.76C345.91,144.32,346.1,144.13,346.13,143.74Zm45,59.21a.45.45,0,0,0,.25-.57c-.07-.29-.15-.64-.49-.65s-.43.35-.4.65A.56.56,0,0,0,391.15,203Z" transform="translate(-96.51 -95.56)"/><path class="cls-2" d="M248.78,414.9c-2.18-.31-4.66-.6-7.12-1a11.89,11.89,0,0,1-3.52-.78c-.29-.14-.78-.12-.75-.56a.88.88,0,0,1,.86-.83,5,5,0,0,1,2.31,0c1.48.65,3.14.4,4.59,1.11a7.06,7.06,0,0,0,2.3.21c1.28.16,2.45.86,3.79.78.21,0,.48,0,.49.3a.65.65,0,0,1-.46.57A11,11,0,0,1,248.78,414.9Z" transform="translate(-96.51 -95.56)"/><path class="cls-2" d="M284.52,412.51c.3-.79.93-.68,1.39-.72,3-.23,5.76-1.42,8.73-1.67.31,0,.6-.3.91-.43s.84-.34,1,.14-.15.72-.57.88a9.69,9.69,0,0,1-1.44.55A44.5,44.5,0,0,1,284.52,412.51Z" transform="translate(-96.51 -95.56)"/><path class="cls-2" d="M360.78,380.89a16.37,16.37,0,0,1-4.32,3.93c-.54.3-1.2.52-1.62-.09s.1-1,.51-1.42.89-.82,1.27-1.27a2.11,2.11,0,0,1,2.06-.76A2.45,2.45,0,0,0,360.78,380.89Z" transform="translate(-96.51 -95.56)"/><path class="cls-2" d="M200.84,404.66c.49,0,1,0,1.17.56.25.79-.53.41-.79.62a1.15,1.15,0,0,0-.48.73.78.78,0,0,1-1,.75,1.23,1.23,0,0,1-1.11-1.08,1,1,0,0,1,.57-1.27A3.72,3.72,0,0,1,200.84,404.66Z" transform="translate(-96.51 -95.56)"/><path class="cls-2" d="M106,298.82a.56.56,0,0,1,.51.55,16.75,16.75,0,0,0,.72,2.87c.09.29.21.72-.3.82s-.61-.17-.66-.58c-.13-1-.65-2-.52-3C105.8,299.21,105.77,299,106,298.82Z" transform="translate(-96.51 -95.56)"/><path class="cls-1" d="M384.28,190.67c-.23,1.53.63,2.4,1.11,3.31q3.36,6.33,6.21,12.9c1.69,3.93,3.23,7.93,5.13,11.77.88,1.75,1.06,3.71,1.64,5.56a1.47,1.47,0,0,0,.87,1.14c1.15.49.9,1.81,1.09,2.7A141.08,141.08,0,0,1,403,242.64c.25,2.23.22,4.54,1,6.75a14.21,14.21,0,0,1,.19,3.6c.27,4.95.76,9.91.37,14.87q-.5,6.25-1.4,12.45c-.33,2.23-1.21,4.36-1.15,6.65,0,.33,0,.76-.4.87s-.48-.27-.59-.55c-.2-.49-.52-.33-.61,0-.7,2.35-2.1,4.53-1.62,7.16.13-.94.9-1.62.95-2.6,0-.31.18-.61.57-.53s.31.37.34.62a7.48,7.48,0,0,1-.73,3.77,17.22,17.22,0,0,0-1,3.7c-.34,2.14-1.77,3.93-1.81,6.16,0,.92-1.12,1.48-1.11,2.52-.45-.83,0-1.81-.69-2.68a33.25,33.25,0,0,0-1.43,3.39c-.91,3.05-2.63,5.79-3.38,8.89-.13.56-.44,1.05.46,1.28.53.13.45.66.29,1.09-1.1,2.85-3.11,5.11-4.91,7.51-.24.31-.58.61-.43,1,.51,1.38-.46,1.8-1.4,2.28-.68.34-1.21.69-.14,1.27.59.32.4.76,0,1.15-2.1,2.07-3.37,4.73-5.07,7.08-1.39,1.92-2.77,3.85-4.22,5.71-2.65,3.38-5.31,6.74-8,10.06-1.76,2.15-3.81,4-5.73,6.05-2.84,3-5.8,5.85-8.77,8.72a14.69,14.69,0,0,1-5.22,3.08,4.07,4.07,0,0,0-2.43,2.84c-.15.48-.27.93-.87,1-1.58.08-2.54,1.17-3.52,2.19a6.53,6.53,0,0,1-2,1.11c-2.14,1.1-4.78.59-6.72,2.22-.54.45-1.67.52-1,1.77.2.35-.37.91-.94,1-2.87.45-5.26,2-7.8,3.25-3.12,1.52-6.39,2.71-9.58,4.07a86.44,86.44,0,0,1-8.32,3.06,75.39,75.39,0,0,1-9.45,2.57c-1.65.29-3.24,1-4.89,1.14-2.52.23-5,.76-7.52,1-3.32.35-6.67.47-10,1a44.77,44.77,0,0,1-6.46.2c-3.12,0-6.23.08-9.34,0a112.15,112.15,0,0,1-11.43-1.08c-4.41-.55-8.73-1.59-13.19-1.84-3.12-.17-6.21-.92-9.33-1.29a55.56,55.56,0,0,1-7.76-1.78c-2.5-.64-4.86-1.68-7.31-2.46-.59-.18-1.24-.3-.83-1.2.22-.47,0-.65-.49-.83a42.48,42.48,0,0,1-11.26-6.37,18.38,18.38,0,0,1-1.55-1.36,4.94,4.94,0,0,0-2.32-1.29c-2.39-.65-4.34-2.21-6.47-3.4-1.68-.94-3.17-2.36-5-3-4.07-1.42-6.56-4.82-9.8-7.26-1.67-1.26-3.22-2.65-4.94-3.87a28.48,28.48,0,0,1-4.84-4.79,18.75,18.75,0,0,0-2.44-2.44c-2.84-2.26-4.9-5.27-7.61-7.64-3.13-2.72-5.34-6.23-8.06-9.3s-4.84-7.06-7.25-10.6c-.13-.2-.25-.65-.18-.7,1.37-.93.07-1.66-.32-2.15-.7-.87-1.17-1.88-1.83-2.77a1.86,1.86,0,0,1-.34-2.24c.57-1.06,0-2-1.26-2.48a1,1,0,0,1-.59-.45c-1.22-2.28-2.55-4.48-3.56-6.87s-2.18-4.85-3.13-7.34a34.13,34.13,0,0,1-1.73-6.21c-.63-3.54-1.82-6.92-2.53-10.42-.78-3.88-1.45-7.77-2-11.7-.62-4.48-.5-9-1.21-13.49-.64-4-.38-8.11-.35-12.17,0-1.38.07-2.77.08-4.15,0-.91,0-1.8.83-2.44a1.18,1.18,0,0,0,.29-1.09c-.27-2.06,0-4.15-.17-6.21s.77-4,.71-6a33.57,33.57,0,0,1,.77-6.66c.8-4.56,1.4-9.18,3.28-13.54.92-2.13,1.77-4.35,2.49-6.6a33.59,33.59,0,0,1,2.81-6.18,53.28,53.28,0,0,0,2.65-5.86,53.92,53.92,0,0,1,4.46-8.52c.25-.4.7-1.71,1.53-.33.15.25.25,0,.34-.12.42-.68,1.07-1.34.21-2.15a.62.62,0,0,1-.2-.81c.85-1.21,1.18-2.67,1.95-3.9.18-.28.33-.7.76-.58s.36.61.4,1-.28,1,.39,1,.71-.48.72-.92a2.28,2.28,0,0,1,.69-1.47,3.43,3.43,0,0,0,.92-2.34c0-.93.9-1.69.61-2.77-.09-.31.54-.29.87-.3.56,0,1.17-.12,1.19-.74,0-1.35,1-2.21,1.72-3.1,1.42-1.7,2.43-3.8,4.48-4.92a.41.41,0,0,0,.15-.21c1.3-3.09,4.27-4.66,6.38-7a93.53,93.53,0,0,1,15.14-13.24,119.1,119.1,0,0,1,10.5-6.73c1-.61,1.63-1.76,2.75-2.3,5-2.38,9.49-5.67,14.67-7.75,2.57-1,5.07-2.3,7.69-3.24.51-.18,1.69-1.17,1.37.7-.1.6.58.49.83.26a3.23,3.23,0,0,1,1.94-.61,1.8,1.8,0,0,0,1.77-1.41,1.64,1.64,0,0,1,1.69-1.14c1,0,2.08-.1,3.11-.19.66-.05,1.43,0,1.64-.91,0-.14.24-.34.36-.33,1.93.07,3.24-1.52,5.08-1.83,2.13-.35,4.26-.68,6.37-1.13,1.94-.41,3.88-.84,5.83-1.17,1.14-.19,2.32-.16,3.48-.28a138.91,138.91,0,0,1,14.57-1,18.59,18.59,0,0,0,3-.37c3.1-.47,6,.63,9,1.06,2.6.37,5.21.64,7.8,1s5.27.81,7.91,1.19c1.92.28,3.85.52,5.75.94,3.35.74,6.67,1.56,9.94,2.6,2.13.68,4.1,1.81,6.31,2.22a1.5,1.5,0,0,1,1.42,1.54c0,.61.38,1.13.93,1,1.85-.33,3.14,1.06,4.75,1.44a33.62,33.62,0,0,0,4.13,1,11.07,11.07,0,0,1,3.93,1.48,57.33,57.33,0,0,0,5.41,2.62,8.76,8.76,0,0,1,3.64,3.19c1.36,1.84,3.37,2.36,5.35,2.7a10.46,10.46,0,0,1,5.25,2.8c.32.28.5.69.14,1-.64.58-.2.93.15,1.4a12,12,0,0,0,4.71,3.68c7.08,3.26,12.92,8.2,18.32,13.76a126.37,126.37,0,0,1,15.93,20.44c1.09,1.71,2.49,3.28,3,5.25.59,2.32,2.52,3.5,3.92,5.12.95,1.09.74,2.43,1.22,3.61.21.52-.55.44-.82.24a10.31,10.31,0,0,1-1.29-1.27C385.13,191.69,384.79,191.27,384.28,190.67ZM180.35,216.3c2.78,1.88,3.63,3.17,3.08,5.51a47.49,47.49,0,0,1-1.74,5.94c-1.1,2.88-2.14,5.79-3.2,8.69-.74,2.06-1.43,4.14-2.23,6.19-.87,2.25-1.85,4.46-2.73,6.7-1.59,4-2.78,8.14-4.4,12.11-2.22,5.43-4,11-6.29,16.4-1.13,2.74-2,5.61-3.34,8.24-2.05,4-4.24,8.06-9.19,9.27a.45.45,0,0,0-.38.47c0,.34.37.3.61.31,1.63.07,3.26.19,4.89.18,4,0,7.95-.11,11.92-.17,1.86,0,3.72,0,5.58-.08.3,0,.7.17.93-.31a1.27,1.27,0,0,0-1-.7c-3.35-.15-5.93-4.08-5.18-7.74a84.41,84.41,0,0,1,2.88-9.78c.71-2.12,1.4-4.25,2.19-6.34,1.1-2.94,2.2-5.88,3.46-8.75s.57-2.67,3.61-2.69a29.19,29.19,0,0,1,12.9,3.3,29.59,29.59,0,0,1,9.81,7,34.34,34.34,0,0,1,2.75,3.26,29.59,29.59,0,0,1,5.24,11.42c.74,4-.49,9.15-5,10.75-.29.1-.72,0-.88.66,9,.35,18,.24,27-.22a10.24,10.24,0,0,1-6.87-7.09c-1.22-3.85-2.21-7.77-3.53-11.6s-2.93-7.9-4.14-11.95c-.86-2.88-2-5.66-3-8.51-.81-2.4-1.49-4.85-2.3-7.26q-1.74-5.11-3.57-10.2c-.95-2.64-1.88-5.28-2.82-7.91s-2.22-5.4-2.75-8.3a7.46,7.46,0,0,1,.18-3.84,5.54,5.54,0,0,1,2.58-2.93Zm139.94.27c-.2,0-.39,0-.59,0-6.19,0-12.37,0-18.55-.05-1.6,0-3.19-.25-4.79-.14-.37,0-.88,0-.9.5s.46.4.78.5a8.6,8.6,0,0,1,4.13,2.51,36.12,36.12,0,0,1,3.72,5c1.47,2.53,3,5,4.68,7.44,2.2,3.16,4.21,6.45,6.21,9.74,1.73,2.85,3.72,5.56,5.5,8.39.56.9,1.65,2,.91,3s-1,2-1.65,2.86c-2.36,3.41-4.4,7-7,10.28a66.2,66.2,0,0,0-4.91,7.35c-1.77,2.91-4,5.51-5.86,8.34a37.91,37.91,0,0,1-3.66,5.33c-1.36,1.45-2.61,3-4,4.45a18.7,18.7,0,0,1-6.47,3.82c7.67.42,15.27,0,22.88-.06-1.08,0-1.9-.78-2.9-1s-2.42-2.57-2.26-3.55a12.61,12.61,0,0,1,2-5.08c.93-1.32,2-2.63,2.76-4,2.51-4.38,5.8-8.23,8.14-12.74,1.78-3.44,4.33-6.48,6.53-9.69.76-1.11,1.07-1.11,1.9,0,1.33,1.72,2.38,3.64,3.54,5.47,2.52,4,5.08,7.95,7.6,11.94,1.71,2.7,3.35,5.45,5,8.22,2.32,4,1.51,7.31-2.35,9.95a.6.6,0,0,0-.25.4c0,.19.18.27.36.27l.91,0,22.45,0H368c-2.9-.9-4.82-2.94-6.74-5-2.81-3.08-4.7-6.78-7-10.2-2.77-4.12-5.26-8.42-8-12.59-3.84-5.93-7.76-11.8-11.62-17.71-.42-.64-1-1.45-.45-2.15s1-1.71,1.56-2.49a36.64,36.64,0,0,0,3.6-5.33,47.3,47.3,0,0,1,3.71-6c1.51-2.11,3.16-4.15,4.73-6.23,1.93-2.55,3.3-5.54,5.86-7.6,1.43-1.15,2.3-3,4.31-3.45a.39.39,0,0,0,.31-.49c-.06-.21-.26-.21-.42-.22-.34,0-.69,0-1,0-5.35-.17-10.71.31-16.06-.19-.22,0-.53-.12-.64.22.08.24.27.22.43.22,2.88.08,3.68,2.41,3.09,4.5a25.1,25.1,0,0,1-4.77,9.12c-2,2.45-3.65,5.17-5.5,7.73-.85,1.18-1.41,2.58-2.58,3.52s-1.58.8-2.29-.31A59.1,59.1,0,0,1,325,235.4c-.79-1.64-2.24-2.8-3.06-4.43a36.78,36.78,0,0,0-2.87-5.09,13.92,13.92,0,0,1-2.06-4.65,3.42,3.42,0,0,1,.89-3A5.55,5.55,0,0,1,320.29,216.57Zm-29.07,20.37c.4-.21.24-.59.28-.91.16-1.6-.62-3-.81-4.57-.34-2.69-1.1-5.31-1.7-8s-1.42-5.2-1.92-7.85c-.13-.66-.27-.68-.8-.34a5.74,5.74,0,0,1-2.67,1.16c-3.75.25-7.52.12-11.27.21-2.79.07-5.6,0-8.4.05q-9.19.21-18.4.19c-3.66,0-7.33.17-11-.17-2.41-.22-4.93.11-7.22-1-.33-.16-.62-.29-.77.26-.78,2.88-1.23,5.84-2,8.74s-1.26,5.7-2,8.52a9.36,9.36,0,0,0-.12,2.06.35.35,0,0,0,.38.41c.19,0,.37-.12.36-.31-.06-1.05.88-1.53,1.34-2.26a17.73,17.73,0,0,1,6.79-6.74c2.45-1.28,4.71-2.77,7.48-3.49a36.06,36.06,0,0,1,10-1.15c1.18,0,1.71.59,1.72,1.77.06,10-.24,20.06.21,30.08.25,5.48-.35,10.94-.06,16.43a104.64,104.64,0,0,1-.18,13.6,24.51,24.51,0,0,1-1.08,6.86,7,7,0,0,1-4.26,4.48c-1.06.39-2.15.63-3.23,1h29.33a1.62,1.62,0,0,0-.87-.24c-1.37-.23-2.9-.4-3.88-1.35-2.47-2.42-3.27-5.65-3.48-9a103.11,103.11,0,0,1-.09-11.12c.22-5.14-.48-10.26-.41-15.39a47.23,47.23,0,0,1,.34-7.87c.37-2,0-4.21-.08-6.32-.12-4.47-.05-8.95-.05-13.42,0-2.64,0-5.28,0-7.92,0-1.62.48-2,2.05-1.76s3.42.35,5.12.64a31.8,31.8,0,0,1,7.12,1.56,25.26,25.26,0,0,1,8.87,5.39A24.86,24.86,0,0,1,291.22,236.94Zm103.23,36.11a32.69,32.69,0,0,1-1.05,5.51c-.63,2.31-.75,4.72-1.49,7-.48,1.51-.78,3.07-1.11,4.62-.64,2.94-1.93,5.69-2.56,8.63a32.54,32.54,0,0,1-1.48,5c-.93,2.38-2,4.69-3.16,7-1.63,3.26-2.94,6.68-4.69,9.89a21.27,21.27,0,0,0-1.38,2.33,34,34,0,0,1-3.37,6c-2.69,4.27-5.32,8.61-8.77,12.36s-6.65,7.56-10.06,11.27c-2.25,2.44-4.66,4.72-7,7.08-.19.19-.37.41-.16.67s.38,0,.55-.11a62.88,62.88,0,0,0,7.89-6.38A91.6,91.6,0,0,0,369,339.56c1.67-2.3,3.63-4.38,4.9-7a65.93,65.93,0,0,1,4-6.29c1.12-1.76,2-3.68,3-5.47,2.27-4,4.15-8.19,6-12.39.74-1.68,1-3.55,1.8-5.15a81.28,81.28,0,0,0,3.68-9.94,41.89,41.89,0,0,0,2.19-12.5c.05-1.63.08-3.28.23-4.9C394.87,274.94,395.11,274,394.45,273.05ZM224.89,393.41a1.86,1.86,0,0,1-1.5.41h-3.25c-.31,0-.64.08-.69.45s.27.53.58.53c.72,0,1.38.43,2.16.1a2.22,2.22,0,0,1,1.88.2,7.25,7.25,0,0,0,2.36.54c1.88.28,3.75.47,5.64.62,3.75.31,7.4,1.42,11.22,1.19,2.63-.16,5.28-.08,7.91,0,1.61,0,3-.79,4.54-1.07-4.15-.5-8.29-.83-12.42-1.23a53.05,53.05,0,0,1-7.14-1c-3.83-.93-7.81-1.16-11.58-2.4-1.7-.56-3.58-.41-5.24-1.25a15.15,15.15,0,0,0-2.3-.77c-.24-.07-.56-.15-.69.13s.13.52.33.62a20.27,20.27,0,0,0,2.7,1.21C221.21,392.3,223.23,392.22,224.89,393.41Zm67.75-268.75c2.15.89,4.43,1.23,6.58,2.06,2.47.94,5.13,1.41,7.54,2.46,6.68,2.87,13.24,6,19.95,8.81.42.17.93.4,1.17,0s-.29-.62-.58-.85a84.08,84.08,0,0,0-7.09-4.59c-1.22-.8-2.76-1.05-3.86-1.93a16.24,16.24,0,0,0-5.77-2.72,76.54,76.54,0,0,0-10.51-2.51c-1.81-.25-3.67-.18-5.42-.92A2.45,2.45,0,0,0,292.64,124.66Zm-92.13,9.15c.06-.41-.38-.62-1-.39a43.15,43.15,0,0,0-6.57,2.76c-2.6,1.52-5.34,2.85-8,4.24-2,1-3.59,2.54-5.48,3.64-3.05,1.76-5.36,4.42-8.13,6.51a.45.45,0,0,0-.12.68c.16.2.39.15.59.05a4.5,4.5,0,0,0,.67-.39c2.27-1.61,4.66-3,7-4.6,3.34-2.25,6.74-4.45,10.27-6.44s7-3.93,10.58-5.88A2.4,2.4,0,0,0,200.51,133.81Zm-74.83,75.08a1,1,0,0,0-1,.69c-.72,1.55-1.53,3.07-2.13,4.67-.79,2.07-1.43,4.19-2.1,6.3-.75,2.36-1.76,4.68-1.42,7.25,0,.34-.2.9.38.92s.67-.49.65-.84c-.07-1.8,1-3.28,1.33-4.94.68-3.1,2-6,2.85-9A37.75,37.75,0,0,0,125.68,208.89Zm275.88,36.72a3.42,3.42,0,0,0-.2,1.91c.06,2.62.64,5.2.58,7.85-.1,5.22,0,10.45.06,15.67,0,.38-.2.87.36,1.11C403.84,268.74,403.31,250.57,401.56,245.61ZM211.48,388.16c-.1-.48-.49-.6-.85-.74-.76-.28-1.56-.47-2.3-.8a52,52,0,0,0-5.76-2.43,1.16,1.16,0,0,0-1.6.6c-.29.71.42.88.89,1.19a12.78,12.78,0,0,0,4.37,1.44,29,29,0,0,0,4.51,1.06C211.09,388.51,211.42,388.69,211.48,388.16Zm7,4.72a20.16,20.16,0,0,1-4.8-.8,4.89,4.89,0,0,0-1.54-.09c-.28,0-.51.1-.5.44a.44.44,0,0,0,.4.43,16.87,16.87,0,0,0,5.61.67C218.06,393.49,218.46,393.46,218.5,392.88ZM135.15,185.2c-.08,0-.18-.18-.26-.17a.41.41,0,0,0-.33.47c0,.09.17.24.23.22C135,185.67,135.12,185.48,135.15,185.2ZM292,124.5c-.11-.12-.18-.25-.27-.27a.38.38,0,0,0-.32.09c-.1.19,0,.32.21.32A1.67,1.67,0,0,0,292,124.5Z" transform="translate(-96.51 -95.56)"/><path class="cls-1" d="M388.16,171.12c-1.55-.72-12.83-13.36-13.52-15.13C377.59,156.76,387.59,168,388.16,171.12Z" transform="translate(-96.51 -95.56)"/><path class="cls-1" d="M415.65,244.06c1.33,1.09,1.21,2.61,1.44,4a18.24,18.24,0,0,1,.21,7.06c-.06.24,0,.58-.36.58a.58.58,0,0,1-.53-.5,8.85,8.85,0,0,1-.36-1.9,30.54,30.54,0,0,0-.7-6.93A2.4,2.4,0,0,1,415.65,244.06Z" transform="translate(-96.51 -95.56)"/><path class="cls-1" d="M133.9,347.93a9.75,9.75,0,0,1,2.52,2.69c1.34,1.88,3,3.57,4.12,5.58.11.2.49.38.22.63s-.54,0-.73-.25a18.88,18.88,0,0,1-1.78-2c-1.27-1.88-3.19-3.26-4.17-5.37C133.9,348.79,133.59,348.48,133.9,347.93Z" transform="translate(-96.51 -95.56)"/><path class="cls-1" d="M395.7,211.8c0,.44.08.85-.39.94s-.47-.28-.61-.54a64.31,64.31,0,0,1-3.46-7.32,3.62,3.62,0,0,1-.18-.88c-.05-.34-.08-.72.36-.84s.55.13.75.38a12.92,12.92,0,0,1,1.11,2.31,42.32,42.32,0,0,1,2.23,5.18C395.6,211.31,395.65,211.61,395.7,211.8Z" transform="translate(-96.51 -95.56)"/><path class="cls-1" d="M346.13,143.74c0,.39-.22.58-.67.49a3.41,3.41,0,0,1-2.22-1.76c-.32-.54.08-.86.68-.87A4.5,4.5,0,0,1,346.13,143.74Z" transform="translate(-96.51 -95.56)"/><path class="cls-1" d="M391.15,203a.56.56,0,0,1-.64-.57c0-.3,0-.66.4-.65s.42.36.49.65A.45.45,0,0,1,391.15,203Z" transform="translate(-96.51 -95.56)"/><path class="cls-3" d="M180.35,216.3h25.13a5.54,5.54,0,0,0-2.58,2.93,7.46,7.46,0,0,0-.18,3.84c.53,2.9,1.78,5.55,2.75,8.3s1.87,5.27,2.82,7.91q1.83,5.08,3.57,10.2c.81,2.41,1.49,4.86,2.3,7.26,1,2.85,2.13,5.63,3,8.51,1.21,4.05,2.76,8,4.14,11.95s2.31,7.75,3.53,11.6a10.24,10.24,0,0,0,6.87,7.09c-9,.46-18,.57-27,.22.16-.62.59-.56.88-.66,4.5-1.6,5.73-6.74,5-10.75a29.59,29.59,0,0,0-5.24-11.42,34.34,34.34,0,0,0-2.75-3.26,29.59,29.59,0,0,0-9.81-7,29.19,29.19,0,0,0-12.9-3.3c-3,0-2.4-.08-3.61,2.69s-2.36,5.81-3.46,8.75c-.79,2.09-1.48,4.22-2.19,6.34a84.41,84.41,0,0,0-2.88,9.78c-.75,3.66,1.83,7.59,5.18,7.74a1.27,1.27,0,0,1,1,.7c-.23.48-.63.31-.93.31-1.86,0-3.72.05-5.58.08-4,.06-7.95.15-11.92.17-1.63,0-3.26-.11-4.89-.18-.24,0-.57,0-.61-.31a.45.45,0,0,1,.38-.47c4.95-1.21,7.14-5.24,9.19-9.27,1.33-2.63,2.21-5.5,3.34-8.24,2.24-5.41,4.07-11,6.29-16.4,1.62-4,2.81-8.12,4.4-12.11.88-2.24,1.86-4.45,2.73-6.7.8-2,1.49-4.13,2.23-6.19,1.06-2.9,2.1-5.81,3.2-8.69a47.49,47.49,0,0,0,1.74-5.94C184,219.47,183.13,218.18,180.35,216.3Zm22.77,45.75a9.74,9.74,0,0,0-.27-1.15c-.51-1.5-1.1-3-1.56-4.49q-2.62-8.51-5.78-16.82c-1.59-4.18-2.95-8.44-4.42-12.67-.17-.49-.33-1-1-1.1s-.76.53-.94.94c-1.32,3.09-2.69,6.15-3.9,9.28-1.29,3.31-2.37,6.71-3.65,10-.89,2.3-1.37,4.7-2.16,7-.35,1,0,1.5,1.16,1.52a27.59,27.59,0,0,1,6.62,1.09,56,56,0,0,1,8.65,3.24,21,21,0,0,1,6,3.7c.27.26.43.75.89.57S203,262.53,203.12,262.05Z" transform="translate(-96.51 -95.56)"/><path class="cls-3" d="M320.29,216.57a5.55,5.55,0,0,0-2.4,1.64,3.42,3.42,0,0,0-.89,3,13.92,13.92,0,0,0,2.06,4.65,36.78,36.78,0,0,1,2.87,5.09c.82,1.63,2.27,2.79,3.06,4.43a59.1,59.1,0,0,0,3.54,5.93c.71,1.11,1.26,1.15,2.29.31s1.73-2.34,2.58-3.52c1.85-2.56,3.46-5.28,5.5-7.73a25.1,25.1,0,0,0,4.77-9.12c.59-2.09-.21-4.42-3.09-4.5-.16,0-.35,0-.43-.22.11-.34.42-.24.64-.22,5.35.5,10.71,0,16.06.19.35,0,.7,0,1,0,.16,0,.36,0,.42.22a.39.39,0,0,1-.31.49c-2,.44-2.88,2.3-4.31,3.45-2.56,2.06-3.93,5.05-5.86,7.6-1.57,2.08-3.22,4.12-4.73,6.23a47.3,47.3,0,0,0-3.71,6,36.64,36.64,0,0,1-3.6,5.33c-.59.78-.94,1.71-1.56,2.49s0,1.51.45,2.15c3.86,5.91,7.78,11.78,11.62,17.71,2.7,4.17,5.19,8.47,8,12.59,2.3,3.42,4.19,7.12,7,10.2,1.92,2.1,3.84,4.14,6.74,5h-3.91l-22.45,0-.91,0c-.18,0-.37-.08-.36-.27a.6.6,0,0,1,.25-.4c3.86-2.64,4.67-5.93,2.35-9.95-1.6-2.77-3.24-5.52-5-8.22-2.52-4-5.08-7.95-7.6-11.94-1.16-1.83-2.21-3.75-3.54-5.47-.83-1.08-1.14-1.08-1.9,0-2.2,3.21-4.75,6.25-6.53,9.69-2.34,4.51-5.63,8.36-8.14,12.74-.79,1.38-1.83,2.69-2.76,4a12.61,12.61,0,0,0-2,5.08c-.16,1,1.3,3.3,2.26,3.55s1.82,1,2.9,1c-7.61.05-15.21.48-22.88.06a18.7,18.7,0,0,0,6.47-3.82c1.4-1.43,2.65-3,4-4.45A37.91,37.91,0,0,0,302,282.3c1.89-2.83,4.09-5.43,5.86-8.34a66.2,66.2,0,0,1,4.91-7.35c2.61-3.25,4.65-6.87,7-10.28.62-.9,1-1.93,1.65-2.86s-.35-2.12-.91-3c-1.78-2.83-3.77-5.54-5.5-8.39-2-3.29-4-6.58-6.21-9.74-1.68-2.41-3.21-4.91-4.68-7.44a36.12,36.12,0,0,0-3.72-5,8.6,8.6,0,0,0-4.13-2.51c-.32-.1-.8-.06-.78-.5s.53-.47.9-.5c1.6-.11,3.19.12,4.79.14,6.18,0,12.36,0,18.55.05C319.9,216.53,320.09,216.56,320.29,216.57Z" transform="translate(-96.51 -95.56)"/><path class="cls-3" d="M291.22,236.94a24.86,24.86,0,0,0-5.37-7.78,25.26,25.26,0,0,0-8.87-5.39,31.8,31.8,0,0,0-7.12-1.56c-1.7-.29-3.42-.34-5.12-.64s-2,.14-2.05,1.76c0,2.64,0,5.28,0,7.92,0,4.47-.07,8.95.05,13.42.06,2.11.45,4.28.08,6.32a47.23,47.23,0,0,0-.34,7.87c-.07,5.13.63,10.25.41,15.39a103.11,103.11,0,0,0,.09,11.12c.21,3.33,1,6.56,3.48,9,1,.95,2.51,1.12,3.88,1.35a1.62,1.62,0,0,1,.87.24H241.86c1.08-.33,2.17-.57,3.23-1a7,7,0,0,0,4.26-4.48,24.51,24.51,0,0,0,1.08-6.86,104.64,104.64,0,0,0,.18-13.6c-.29-5.49.31-11,.06-16.43-.45-10-.15-20.05-.21-30.08,0-1.18-.54-1.75-1.72-1.77a36.06,36.06,0,0,0-10,1.15c-2.77.72-5,2.21-7.48,3.49a17.73,17.73,0,0,0-6.79,6.74c-.46.73-1.4,1.21-1.34,2.26,0,.19-.17.3-.36.31a.35.35,0,0,1-.38-.41,9.36,9.36,0,0,1,.12-2.06c.75-2.82,1.27-5.7,2-8.52s1.21-5.86,2-8.74c.15-.55.44-.42.77-.26,2.29,1.15,4.81.82,7.22,1,3.65.34,7.32.17,11,.17q9.19,0,18.4-.19c2.8-.07,5.61,0,8.4-.05,3.75-.09,7.52,0,11.27-.21a5.74,5.74,0,0,0,2.67-1.16c.53-.34.67-.32.8.34.5,2.65,1.32,5.23,1.92,7.85s1.36,5.26,1.7,8c.19,1.54,1,3,.81,4.57C291.46,236.35,291.62,236.73,291.22,236.94Z" transform="translate(-96.51 -95.56)"/><path class="cls-4" d="M394.45,273.05c.66.93.42,1.89.33,2.88-.15,1.62-.18,3.27-.23,4.9a41.89,41.89,0,0,1-2.19,12.5,81.28,81.28,0,0,1-3.68,9.94c-.81,1.6-1.06,3.47-1.8,5.15-1.85,4.2-3.73,8.37-6,12.39-1,1.79-1.86,3.71-3,5.47a65.93,65.93,0,0,0-4,6.29c-1.27,2.61-3.23,4.69-4.9,7a91.6,91.6,0,0,1-12.4,14.34,62.88,62.88,0,0,1-7.89,6.38c-.17.12-.35.34-.55.11s0-.48.16-.67c2.34-2.36,4.75-4.64,7-7.08,3.41-3.71,6.64-7.57,10.06-11.27s6.08-8.09,8.77-12.36a34,34,0,0,0,3.37-6,21.27,21.27,0,0,1,1.38-2.33c1.75-3.21,3.06-6.63,4.69-9.89,1.14-2.3,2.23-4.61,3.16-7a32.54,32.54,0,0,0,1.48-5c.63-2.94,1.92-5.69,2.56-8.63.33-1.55.63-3.11,1.11-4.62.74-2.29.86-4.7,1.49-7A32.69,32.69,0,0,0,394.45,273.05Z" transform="translate(-96.51 -95.56)"/><path class="cls-4" d="M224.89,393.41c-1.66-1.19-3.68-1.11-5.49-1.71a20.27,20.27,0,0,1-2.7-1.21c-.2-.1-.47-.33-.33-.62s.45-.2.69-.13a15.15,15.15,0,0,1,2.3.77c1.66.84,3.54.69,5.24,1.25,3.77,1.24,7.75,1.47,11.58,2.4a53.05,53.05,0,0,0,7.14,1c4.13.4,8.27.73,12.42,1.23-1.55.28-2.93,1.09-4.54,1.07-2.63,0-5.28-.12-7.91,0-3.82.23-7.47-.88-11.22-1.19-1.89-.15-3.76-.34-5.64-.62a7.25,7.25,0,0,1-2.36-.54,2.22,2.22,0,0,0-1.88-.2c-.78.33-1.44-.09-2.16-.1-.31,0-.63-.14-.58-.53s.38-.45.69-.45h3.25A1.86,1.86,0,0,0,224.89,393.41Z" transform="translate(-96.51 -95.56)"/><path class="cls-4" d="M292.64,124.66a2.45,2.45,0,0,1,2-.18c1.75.74,3.61.67,5.42.92a76.54,76.54,0,0,1,10.51,2.51,16.24,16.24,0,0,1,5.77,2.72c1.1.88,2.64,1.13,3.86,1.93a84.08,84.08,0,0,1,7.09,4.59c.29.23.84.45.58.85s-.75.16-1.17,0c-6.71-2.8-13.27-5.94-19.95-8.81-2.41-1.05-5.07-1.52-7.54-2.46C297.07,125.89,294.79,125.55,292.64,124.66Z" transform="translate(-96.51 -95.56)"/><path class="cls-4" d="M200.51,133.81a2.4,2.4,0,0,1-.25.18c-3.53,1.95-7.06,3.9-10.58,5.88s-6.93,4.19-10.27,6.44c-2.31,1.55-4.7,3-7,4.6a4.5,4.5,0,0,1-.67.39c-.2.1-.43.15-.59-.05a.45.45,0,0,1,.12-.68c2.77-2.09,5.08-4.75,8.13-6.51,1.89-1.1,3.51-2.62,5.48-3.64,2.69-1.39,5.43-2.72,8-4.24a43.15,43.15,0,0,1,6.57-2.76C200.13,133.19,200.57,133.4,200.51,133.81Z" transform="translate(-96.51 -95.56)"/><path class="cls-2" d="M125.68,208.89a37.75,37.75,0,0,1-1.4,5c-.81,3.05-2.17,5.92-2.85,9-.36,1.66-1.4,3.14-1.33,4.94,0,.35-.2.86-.65.84s-.34-.58-.38-.92c-.34-2.57.67-4.89,1.42-7.25.67-2.11,1.31-4.23,2.1-6.3.6-1.6,1.41-3.12,2.13-4.67A1,1,0,0,1,125.68,208.89Z" transform="translate(-96.51 -95.56)"/><path class="cls-2" d="M401.56,245.61c1.75,5,2.28,23.13.8,26.54-.56-.24-.36-.73-.36-1.11,0-5.22-.16-10.45-.06-15.67.06-2.65-.52-5.23-.58-7.85A3.42,3.42,0,0,1,401.56,245.61Z" transform="translate(-96.51 -95.56)"/><path class="cls-4" d="M211.48,388.16c-.06.53-.39.35-.74.32a29,29,0,0,1-4.51-1.06,12.78,12.78,0,0,1-4.37-1.44c-.47-.31-1.18-.48-.89-1.19a1.16,1.16,0,0,1,1.6-.6,52,52,0,0,1,5.76,2.43c.74.33,1.54.52,2.3.8C211,387.56,211.38,387.68,211.48,388.16Z" transform="translate(-96.51 -95.56)"/><path class="cls-2" d="M218.5,392.88c0,.58-.44.61-.83.65a16.87,16.87,0,0,1-5.61-.67.44.44,0,0,1-.4-.43c0-.34.22-.45.5-.44a4.89,4.89,0,0,1,1.54.09A20.16,20.16,0,0,0,218.5,392.88Z" transform="translate(-96.51 -95.56)"/><path class="cls-2" d="M135.15,185.2c0,.28-.14.47-.36.52-.06,0-.22-.13-.23-.22a.41.41,0,0,1,.33-.47C135,185,135.07,185.15,135.15,185.2Z" transform="translate(-96.51 -95.56)"/><path class="cls-4" d="M292,124.5a1.67,1.67,0,0,1-.38.14c-.2,0-.31-.13-.21-.32a.38.38,0,0,1,.32-.09C291.77,124.25,291.84,124.38,292,124.5Z" transform="translate(-96.51 -95.56)"/><path class="cls-1" d="M203.12,262.05c-.08.48.13,1-.33,1.15s-.62-.31-.89-.57a21,21,0,0,0-6-3.7,56,56,0,0,0-8.65-3.24,27.59,27.59,0,0,0-6.62-1.09c-1.14,0-1.51-.48-1.16-1.52.79-2.32,1.27-4.72,2.16-7,1.28-3.31,2.36-6.71,3.65-10,1.21-3.13,2.58-6.19,3.9-9.28.18-.41.33-1,.94-.94s.78.61,1,1.1c1.47,4.23,2.83,8.49,4.42,12.67q3.17,8.31,5.78,16.82c.46,1.51,1.05,3,1.56,4.49A9.74,9.74,0,0,1,203.12,262.05Z" transform="translate(-96.51 -95.56)"/></svg>